<svg xmlns="http://www.w3.org/2000/svg" viewBox="0 0 240 160" role="img" aria-label="Football helmet">
  <rect width="240" height="160" fill="#111827"/>
  <path d="M52 98c0-40 32-70 76-70 42 0 72 27 72 66v14h-54c-12 0-22 10-22 22v6H91c-23 0-39-16-39-38Z" fill="#c5161d"/>
  <path d="M72 95c0-29 24-50 58-50 29 0 50 17 55 43" fill="none" stroke="#fff" stroke-width="8" opacity=".25"/>
  <path d="M145 108h51M145 126h42M145 108v23" fill="none" stroke="#f8fafc" stroke-width="8" stroke-linecap="round"/>
  <path d="M89 136h34" stroke="#020617" stroke-width="10" stroke-linecap="round"/>
  <circle cx="92" cy="84" r="8" fill="#020617"/>
</svg>
